<svg width="284" height="224" viewBox="0 0 284 224" fill="none" xmlns="http://www.w3.org/2000/svg">
<g clip-path="url(#clip0_4460_282)">
<path d="M255.937 0H28.0632C12.5643 0 0 12.536 0 28V196C0 211.464 12.5643 224 28.0632 224H255.937C271.436 224 284 211.464 284 196V28C284 12.536 271.436 0 255.937 0Z" fill="#744FFF"/>
<path d="M193.313 129.581H198.779V101.897L193.313 102.382V129.581ZM196.028 90.6419C195.533 90.6415 195.043 90.7397 194.586 90.9307C194.13 91.1217 193.716 91.4017 193.369 91.7542C193.022 92.1068 192.749 92.5248 192.566 92.9839C192.383 93.443 192.294 93.9339 192.303 94.4279C192.313 95.4072 192.71 96.343 193.407 97.032C194.105 97.721 195.047 98.1075 196.028 98.1075C197.01 98.1075 197.952 97.721 198.649 97.032C199.347 96.343 199.743 95.4072 199.753 94.4279C199.754 93.4355 199.365 92.4823 198.668 91.7742C197.971 91.066 197.023 90.6596 196.028 90.6427V90.6419ZM240.485 101.897L232.618 120.133L224.227 101.897H213.331V99.5C213.331 96.6518 214.653 95.4706 217.369 95.4706C218.309 95.4873 219.244 95.6155 220.154 95.8525L221.372 91.5107C219.644 90.9366 217.832 90.6549 216.011 90.677C210.719 90.677 207.865 94.1158 207.865 99.1177V101.896L203.2 102.28V106.655H207.865V129.581H213.331V106.621H220.466L229.935 126.315C229.135 128.052 228.16 129.998 226.628 131.178C225.27 132.255 223.53 132.359 221.858 132.012L220.571 136.492C223.042 137.395 226.141 137.291 228.438 136.04C230.945 134.65 232.616 132.045 233.73 129.475L246.263 101.792H240.45V101.896L240.485 101.897ZM175.21 125.447C170.649 125.412 166.82 121.661 166.82 115.721C166.82 109.748 170.614 106.03 175.21 105.961C179.77 105.995 183.6 109.747 183.6 115.721C183.6 121.661 179.77 125.447 175.21 125.447ZM175.21 101.133C173.642 101.117 172.086 101.414 170.634 102.004C169.181 102.594 167.861 103.467 166.75 104.571V91.4412L161.633 91.893V129.615H166.75V126.941C167.861 128.045 169.181 128.918 170.634 129.508C172.086 130.098 173.642 130.395 175.21 130.38C182.939 130.345 188.857 124.266 188.857 115.756C188.857 107.246 182.904 101.202 175.21 101.133ZM115.435 106.03C116.926 106.075 118.377 106.518 119.638 107.312C120.9 108.107 121.925 109.224 122.607 110.547L127.028 107.803C125.866 105.762 124.178 104.068 122.14 102.895C120.102 101.723 117.787 101.114 115.435 101.133C107.671 101.167 101.788 107.246 101.788 115.756C101.788 124.266 107.671 130.31 115.435 130.38C117.789 130.405 120.107 129.8 122.146 128.627C124.185 127.453 125.871 125.755 127.028 123.709L122.607 120.965C121.145 123.709 118.429 125.483 115.435 125.483C110.874 125.448 107.045 121.697 107.045 115.722C107.045 109.748 110.874 106.065 115.435 106.03ZM142.764 125.447C138.203 125.412 134.373 121.661 134.373 115.721C134.373 109.748 138.168 106.03 142.764 105.961C147.324 105.995 151.154 109.747 151.154 115.72C151.119 121.661 147.324 125.447 142.764 125.447ZM151.223 104.571C150.112 103.467 148.792 102.594 147.34 102.004C145.887 101.414 144.332 101.117 142.764 101.133C135.035 101.167 129.117 107.246 129.117 115.756C129.117 124.266 135 130.31 142.764 130.38C144.332 130.395 145.887 130.098 147.34 129.508C148.792 128.918 150.112 128.045 151.223 126.941V129.615H156.341V101.862L151.223 102.314V104.571ZM56.0777 126.107L66.3129 136.458L76.5481 126.107C76.9932 125.661 77.5221 125.307 78.1046 125.066C78.6871 124.824 79.3117 124.7 79.9425 124.7C80.5733 124.7 81.1979 124.824 81.7804 125.066C82.3629 125.307 82.8918 125.661 83.3368 126.107C84.2405 127.025 84.7468 128.26 84.7468 129.546C84.7468 130.832 84.2405 132.067 83.3368 132.985L66.3477 150.179L49.289 132.985C44.782 128.391 42.2576 122.219 42.2567 115.791C42.2567 102.383 53.0139 91.4763 66.2789 91.4763C69.4422 91.4803 72.5731 92.1119 75.4894 93.3344C78.4058 94.5568 81.0494 96.3457 83.2665 98.5969C84.1701 99.5144 84.6764 100.749 84.6764 102.036C84.6764 103.322 84.1701 104.557 83.2665 105.474C82.8215 105.92 82.2925 106.274 81.71 106.516C81.1275 106.757 80.5029 106.882 79.8721 106.882C79.2414 106.882 78.6168 106.757 78.0343 106.516C77.4518 106.274 76.9228 105.92 76.4778 105.474C75.1421 104.119 73.549 103.044 71.7917 102.31C70.0345 101.576 68.1482 101.2 66.2433 101.202C58.2711 101.202 51.7956 107.732 51.7956 115.825C51.8361 119.676 53.3709 123.362 56.0777 126.107ZM66.2781 106.03C67.5418 106.036 68.7919 106.291 69.9568 106.78C71.1217 107.268 72.1786 107.982 73.0668 108.879C73.9562 109.778 75.0159 110.492 76.1843 110.98C77.3527 111.467 78.6065 111.718 79.8729 111.718C81.1393 111.718 82.3931 111.467 83.5615 110.98C84.7299 110.492 85.7895 109.778 86.679 108.879C88.4708 107.035 89.4728 104.569 89.4728 102.001C89.4728 99.4333 88.4708 96.9665 86.679 95.1234C84.0075 92.4346 80.8301 90.2988 77.3292 88.8384C73.8283 87.378 70.0727 86.6218 66.2781 86.6133C50.3685 86.6133 37.419 99.6736 37.419 115.791C37.4029 123.512 40.4433 130.927 45.8788 136.423L66.2792 157.056L86.6801 136.423C88.4719 134.58 89.474 132.114 89.474 129.546C89.474 126.978 88.4719 124.511 86.6801 122.668C85.7907 121.769 84.731 121.055 83.5626 120.567C82.3942 120.08 81.1404 119.829 79.874 119.829C78.6076 119.829 77.3538 120.08 76.1854 120.567C75.017 121.055 73.9574 121.769 73.0679 122.668L66.2781 129.581L59.4894 122.668C57.6938 120.828 56.6938 118.359 56.7044 115.791C56.6824 114.52 56.9134 113.258 57.3841 112.078C57.8548 110.897 58.5558 109.822 59.4465 108.914C60.3371 108.006 61.3996 107.283 62.5724 106.788C63.7451 106.293 65.0047 106.035 66.2781 106.03Z" fill="white"/>
</g>
<defs>
<clipPath id="clip0_4460_282">
<rect width="284" height="224" fill="white"/>
</clipPath>
</defs>
</svg>
