<svg width="232" height="56" viewBox="0 0 232 56" fill="none" xmlns="http://www.w3.org/2000/svg">
<g clip-path="url(#clip0_120_1417)">
<path d="M205.128 55.2286H204.948L133.431 50.0552L45.4854 54.0941L45.3954 54.0487L1.5127 27.3194L2.18781 27.0017L61.5982 1.31616H61.6432L130.055 5.30968L209.584 3.04064L209.719 3.17678L230.018 27.3648L229.793 27.6371L205.128 55.2286ZM133.476 49.2837L204.813 54.4572L229.028 27.3648L209.269 3.85749L130.055 6.12653L61.7333 2.13302L3.17799 27.4555L45.6654 53.3226L133.476 49.2837Z" fill="url(#paint0_linear_120_1417)"/>
<path d="M205.443 55.5463L204.767 55.0924L180.373 39.073L134.15 49.7829L134.555 50.0552L133.79 49.919V50.2367L133.385 49.9644L133.25 50.0552V49.9644L131.81 50.2821L132.62 49.8283L71.3191 39.3907L44.9895 54.321L45.2595 53.5495L50.7505 35.8963L0.431641 27.3647L56.3314 17.8801L61.5073 1.22534L61.8674 1.45225L80.3656 13.7958L129.199 5.49114L128.479 4.99195L129.739 5.26424V5.17348L129.964 5.30962L130.279 5.1281V5.355L131.315 5.17348L130.865 5.44576L196.216 14.5219H196.261L196.441 14.5673L209.448 3.04058L209.898 3.53977L197.386 14.6127H197.791L197.341 14.885L229.612 27.0924L229.792 27.1378L230.152 27.274L230.647 27.3647L230.512 27.4101L230.602 27.4555L229.567 27.7278L200.942 34.3534L205.443 55.5463ZM181.228 38.9369L204.452 54.1848L200.312 34.4895L181.228 38.9369ZM51.3806 36.0325L46.1147 53.0049L70.2839 39.2545L51.3806 36.0325ZM130.414 6.35338L133.745 49.1476L167.366 30.5868L130.414 6.35338ZM72.2192 38.9369L131.99 49.1022L96.2984 25.2318L72.2192 38.9369ZM96.9286 24.8688L133.07 49.0114L129.739 6.21724L96.9286 24.8688ZM167.996 30.9952L135.68 48.8299L179.653 38.6192L167.996 30.9952ZM51.5606 35.3971L71.184 38.7553L95.6683 24.8234L80.1856 14.4766L56.8265 18.4247L51.5606 35.3971ZM168.626 30.6322L180.508 38.3923L200.222 33.8088L197.476 20.6937L189.735 19.0146L168.626 30.6322ZM4.30232 27.3647L50.9305 35.3064L56.1064 18.5608L4.30232 27.3647ZM198.106 20.8753L200.807 33.7181L227.992 27.4101L198.106 20.8753ZM131.675 6.39876L167.996 30.2237L188.7 18.8331L131.675 6.39876ZM197.971 20.1492L225.246 26.0941L196.936 15.3842L197.971 20.1492ZM81.1308 14.3404L96.3435 24.5057L128.299 6.35338L81.1308 14.3404ZM190.545 18.5608L197.296 20.013L196.306 15.3842L190.545 18.5608ZM138.336 7.17024L189.555 18.3339L195.496 15.0665L191.67 14.5219L138.336 7.17024ZM61.8674 2.22372L57.0516 17.744L79.4205 13.932L61.8674 2.22372Z" fill="url(#paint1_linear_120_1417)"/>
<path d="M130.055 6.85254C130.676 6.85254 131.18 6.3446 131.18 5.71802C131.18 5.09144 130.676 4.5835 130.055 4.5835C129.433 4.5835 128.93 5.09144 128.93 5.71802C128.93 6.3446 129.433 6.85254 130.055 6.85254Z" fill="#1E959B"/>
<path d="M45.5755 55.4101C46.5201 55.4101 47.2858 54.6381 47.2858 53.6857C47.2858 52.7333 46.5201 51.9612 45.5755 51.9612C44.631 51.9612 43.8652 52.7333 43.8652 53.6857C43.8652 54.6381 44.631 55.4101 45.5755 55.4101Z" fill="#1E959B"/>
<path d="M204.948 56C205.57 56 206.074 55.4921 206.074 54.8655C206.074 54.2389 205.57 53.731 204.948 53.731C204.327 53.731 203.823 54.2389 203.823 54.8655C203.823 55.4921 204.327 56 204.948 56Z" fill="#1E959B"/>
<path d="M229.523 29.0891C230.467 29.0891 231.233 28.317 231.233 27.3646C231.233 26.4122 230.467 25.6401 229.523 25.6401C228.578 25.6401 227.812 26.4122 227.812 27.3646C227.812 28.317 228.578 29.0891 229.523 29.0891Z" fill="#1E959B"/>
<path d="M209.449 5.49102C210.568 5.49102 211.475 4.57672 211.475 3.44888C211.475 2.32104 210.568 1.40674 209.449 1.40674C208.331 1.40674 207.424 2.32104 207.424 3.44888C207.424 4.57672 208.331 5.49102 209.449 5.49102Z" fill="#1E959B"/>
<path d="M133.476 52.0065C134.744 52.0065 135.771 50.9703 135.771 49.6921C135.771 48.4139 134.744 47.3777 133.476 47.3777C132.208 47.3777 131.181 48.4139 131.181 49.6921C131.181 50.9703 132.208 52.0065 133.476 52.0065Z" fill="#1E959B"/>
<path d="M2.36767 29.6791C3.63538 29.6791 4.66307 28.6429 4.66307 27.3647C4.66307 26.0865 3.63538 25.0503 2.36767 25.0503C1.09995 25.0503 0.0722656 26.0865 0.0722656 27.3647C0.0722656 28.6429 1.09995 29.6791 2.36767 29.6791Z" fill="#1E959B"/>
<path d="M61.6878 3.44895C62.6324 3.44895 63.3981 2.67687 63.3981 1.72447C63.3981 0.772073 62.6324 0 61.6878 0C60.7433 0 59.9775 0.772073 59.9775 1.72447C59.9775 2.67687 60.7433 3.44895 61.6878 3.44895Z" fill="#1E959B"/>
<path d="M31.1279 14.8397C32.7032 15.5657 33.8734 16.5641 34.7286 17.8802C35.5837 19.1962 35.9888 20.7392 35.9888 22.509C35.9888 24.2789 35.5837 25.8218 34.7286 27.1379C33.8734 28.4539 32.7032 29.4523 31.1279 30.1784C29.5527 30.8591 27.7523 31.2222 25.637 31.2222H20.7761V37.8478H15.2852V13.7959H25.592C27.7073 13.7959 29.5527 14.1136 31.1279 14.8397ZM29.1026 25.5949C29.9577 24.8688 30.4078 23.8704 30.4078 22.509C30.4078 21.1476 29.9577 20.1038 29.1026 19.3777C28.2474 18.6516 26.9872 18.2886 25.3219 18.2886H20.8211V26.6387H25.3219C26.9422 26.6841 28.2024 26.321 29.1026 25.5949ZM48.726 32.5382H45.4404V37.8478H40.0395V18.0617H48.9511C51.6515 18.0617 53.8119 18.697 55.3872 20.0131C56.9625 21.3291 57.7726 23.099 57.7726 25.368C57.7726 26.8202 57.4126 28.0455 56.7374 29.1346C56.0623 30.1784 55.0721 31.0406 53.8119 31.6306L58.1777 37.8478H52.3717L48.726 32.5382ZM51.4265 23.099C50.7964 22.5544 49.8512 22.3275 48.591 22.3275H45.4404V28.4539H48.591C49.8512 28.4539 50.7964 28.1816 51.4265 27.6824C52.0566 27.1379 52.3717 26.4118 52.3717 25.4134C52.3717 24.3696 52.0566 23.5982 51.4265 23.099ZM65.919 36.8948C64.2988 36.0779 62.9485 34.8072 62.0034 33.2189C61.0582 31.676 60.5631 29.9061 60.5631 27.9547C60.5631 26.0033 61.0582 24.2335 62.0034 22.6905C62.9485 21.1022 64.2988 19.8316 65.919 19.0147C67.5843 18.1525 69.4747 17.6986 71.545 17.6986C73.6154 17.6986 75.5057 18.1525 77.171 19.0147C78.7913 19.8316 80.1415 21.1476 81.0867 22.6905C82.0319 24.2789 82.5269 26.0033 82.5269 27.9547C82.5269 29.9061 82.0319 31.676 81.0867 33.2189C80.1415 34.7619 78.7913 36.0325 77.171 36.8948C75.5057 37.757 73.6154 38.2108 71.545 38.2108C69.4747 38.2108 67.5843 37.757 65.919 36.8948ZM74.4255 33.0374C75.2807 32.5382 75.9558 31.8121 76.4059 30.9499C76.901 30.0422 77.126 28.9985 77.126 27.9547C77.126 26.8202 76.901 25.8218 76.4059 24.9596C75.9558 24.0974 75.2357 23.3713 74.4255 22.8721C72.6702 21.8737 70.5098 21.8737 68.7545 22.8721C67.8994 23.3713 67.2243 24.0974 66.7292 24.9596C66.2341 25.8218 66.0091 26.8656 66.0091 27.9547C66.0091 28.9985 66.2341 29.9969 66.7292 30.9499C67.1793 31.8121 67.8994 32.5382 68.7545 33.0374C70.4648 34.0358 72.6252 34.0358 74.4255 33.0374ZM86.3976 18.0617H95.6243C97.8296 18.0617 99.81 18.4701 101.475 19.2416C103.141 20.0131 104.446 21.193 105.391 22.6905C106.291 24.1881 106.786 25.9126 106.786 27.9547C106.786 29.9515 106.336 31.676 105.391 33.1735C104.491 34.6711 103.186 35.8056 101.475 36.6225C99.81 37.4393 97.8296 37.8478 95.6243 37.8478H86.3976V18.0617ZM95.4442 33.582C97.2445 33.582 98.6848 33.0828 99.72 32.1298C100.755 31.1768 101.295 29.77 101.295 28.0001C101.295 26.2303 100.755 24.8234 99.72 23.8251C98.6848 22.8267 97.2445 22.3275 95.4442 22.3275H91.7536V33.582H95.4442ZM112.862 35.851C111.242 34.2627 110.432 32.0844 110.432 29.3162V18.0617H115.833V29.1346C115.833 30.6776 116.148 31.8121 116.823 32.5836C117.498 33.3551 118.488 33.7635 119.793 33.7635C121.054 33.7635 122.044 33.3551 122.674 32.5836C123.349 31.8121 123.664 30.6322 123.664 29.1346V18.0617H128.975V29.3162C128.975 32.0844 128.165 34.2627 126.545 35.851C124.924 37.4393 122.629 38.2108 119.703 38.2108C116.778 38.2108 114.483 37.4393 112.862 35.851ZM137.887 36.8948C136.266 36.0779 134.916 34.8072 133.971 33.2189C133.026 31.676 132.531 29.9061 132.531 27.9547C132.531 26.0033 133.026 24.2335 133.971 22.6905C134.916 21.1476 136.266 19.8769 137.887 19.0147C139.552 18.1525 141.397 17.6986 143.468 17.6986C145.358 17.6986 146.978 17.9709 148.374 18.5609C149.769 19.1508 150.939 20.0585 151.929 21.3291L148.464 24.5058C147.158 22.9174 145.583 22.146 143.693 22.146C142.027 22.146 140.677 22.6905 139.597 23.7797C138.517 24.8688 137.977 26.2756 137.977 28.0001C137.977 29.1346 138.202 30.1784 138.697 31.0406C139.147 31.9029 139.867 32.629 140.722 33.0828C141.622 33.582 142.658 33.8089 143.693 33.8089C145.583 33.8089 147.158 33.0374 148.464 31.4491L151.929 34.6257C150.984 35.851 149.769 36.7586 148.374 37.3486C146.978 37.9385 145.358 38.2108 143.468 38.2108C141.442 38.2108 139.552 37.757 137.887 36.8948ZM158.995 22.2821H152.829V18.0617H170.562V22.2821H164.396V37.8024H158.995V22.2821ZM177.134 15.9742V25.4134H189.466V27.5917H177.134V37.8024H174.613V13.7505H190.951V15.9288L177.134 15.9742ZM195.587 18.4247H198.017V37.8478H195.587V18.4247ZM208.549 20.4669H201.753V18.4247H217.776V20.4669H210.979V37.8478H208.549V20.4669ZM195.272 14.4312C194.867 15.2935 195.272 16.3372 196.127 16.7003C196.982 17.1087 198.017 16.7003 198.377 15.838C198.782 14.9758 198.377 13.932 197.522 13.569C196.667 13.1606 195.632 13.5236 195.272 14.4312Z" fill="#1E959B"/>
</g>
<defs>
<linearGradient id="paint0_linear_120_1417" x1="1.51315" y1="28.2909" x2="230.015" y2="28.2909" gradientUnits="userSpaceOnUse">
<stop stop-color="#AFDBDE"/>
<stop offset="1" stop-color="#C7E5E7"/>
</linearGradient>
<linearGradient id="paint1_linear_120_1417" x1="0.409722" y1="28.386" x2="230.626" y2="28.386" gradientUnits="userSpaceOnUse">
<stop stop-color="#AFDBDE"/>
<stop offset="1" stop-color="#C7E5E7"/>
</linearGradient>
<clipPath id="clip0_120_1417">
<rect width="231.161" height="56" fill="white" transform="translate(0.0722656)"/>
</clipPath>
</defs>
</svg>
