<svg width="190" height="150" viewBox="0 0 190 150" fill="none" xmlns="http://www.w3.org/2000/svg">
<g clip-path="url(#clip0_172_409)">
<path d="M171.225 0H18.7747C8.40572 0 0 8.39466 0 18.75V131.25C0 141.605 8.40572 150 18.7747 150H171.225C181.594 150 190 141.605 190 131.25V18.75C190 8.39466 181.594 0 171.225 0Z" fill="#03A9F4"/>
<path fill-rule="evenodd" clip-rule="evenodd" d="M25.9173 57.0948C24.8483 57.2478 23.8177 57.6008 22.8798 58.1353C21.0575 59.2232 19.7282 60.9739 19.1709 63.0198C18.8855 64.1448 18.881 64.3533 18.904 75.4375L18.9263 86.1345L19.1121 86.8345C20.0097 90.2153 22.6139 92.5205 26.0211 92.9515C26.7721 93.0465 46.8696 93.0438 47.6351 92.9485C49.6461 92.719 51.4956 91.7378 52.8119 90.202C53.6432 89.2292 54.2359 88.0762 54.5429 86.8345L54.7294 86.1345L54.7504 75.3878C54.7732 63.677 54.7815 63.9538 54.3792 62.6778C53.9168 61.1946 53.0338 59.8771 51.837 58.8848C50.6402 57.8926 49.181 57.2682 47.6361 57.0873C46.8979 56.998 26.6307 57.004 25.9173 57.0948ZM94.8645 67.6948C94.886 76.9683 94.8963 77.7125 95.0119 78.1995C95.3557 79.8438 96.1721 81.3523 97.3613 82.5403C98.3216 83.5413 99.5354 84.264 100.874 84.6314C102.212 84.9988 103.626 84.9973 104.963 84.627C106.346 84.2139 107.602 83.458 108.614 82.4298C109.96 80.998 110.785 79.1555 110.956 77.1986C111.127 75.2418 110.634 73.2844 109.556 71.6413C108.962 70.8081 108.247 70.0675 107.435 69.4433C106.307 68.644 104.987 68.1557 103.61 68.0276C102.232 67.8995 100.845 68.136 99.5887 68.7135L99.1211 68.9358L99.7789 70.369C99.9873 70.8604 100.225 71.3388 100.491 71.8015C100.705 71.7364 100.915 71.6607 101.12 71.5745C101.835 71.2855 102.61 71.1782 103.377 71.2622C104.143 71.3462 104.877 71.6189 105.511 72.0558C106.254 72.5487 106.849 73.2336 107.232 74.0375C107.626 74.7819 107.816 75.6167 107.783 76.4578C107.805 77.4396 107.543 78.4069 107.029 79.2441C106.514 80.0812 105.77 80.7528 104.884 81.1785C104.256 81.4954 103.559 81.649 102.856 81.6253C102.055 81.6312 101.266 81.4349 100.562 81.0547C99.8578 80.6744 99.2612 80.1225 98.8277 79.4503C98.459 78.917 98.2001 78.3159 98.0662 77.6818C97.9473 77.161 97.9335 76.5998 97.8955 70.6833C97.8727 67.1455 97.8539 62.7803 97.8537 60.9833V57.714H94.8412L94.8645 67.6948ZM158.284 71.2775V84.7713H161.083V82.0963L161.084 79.4213L161.857 78.4948C162.114 78.1701 162.389 77.8608 162.681 77.5685C162.709 77.5685 163.942 79.1888 165.42 81.1685L168.109 84.7685H169.705C170.963 84.7685 171.29 84.75 171.248 84.6813C171.219 84.6333 169.729 82.5813 167.937 80.1193C166.144 77.6573 164.654 75.6065 164.625 75.5598C164.592 75.506 165.713 74.0778 167.688 71.6585C169.401 69.5585 170.803 67.828 170.803 67.8108C170.803 67.7935 170.055 67.7793 169.141 67.7793H167.479L164.298 71.5843L161.116 75.392L161.098 66.588L161.081 57.784H158.284V71.2775ZM45.5573 62.579C45.9353 62.6769 46.303 62.8108 46.6553 62.979C47.5503 63.4387 48.2795 64.1657 48.7413 65.0588C49.2632 66.138 49.2419 65.7838 49.2367 73.1315L49.2324 79.7035L49.073 79.249C48.5746 77.829 47.5182 76.2915 45.8855 74.6103C43.5419 72.197 40.8038 70.3035 38.5992 69.5698C37.3533 69.1553 36.7718 69.1698 35.6553 69.6393C33.294 70.6348 28.927 73.93 26.0567 76.8823C25.5182 77.436 24.9515 78.0555 24.7978 78.2588L24.5179 78.6283L24.5004 72.6053C24.4804 65.8575 24.4623 66.138 24.9848 65.0578C25.4434 64.1877 26.1487 63.4719 27.0124 63C28.1064 62.45 27.5632 62.4793 36.8146 62.4735C44.0839 62.4688 45.1133 62.4813 45.5573 62.579ZM131.512 71.4698L131.533 79.143L131.69 79.7023C131.919 80.4707 132.265 81.1998 132.714 81.8645C133.295 82.6121 133.994 83.2594 134.785 83.7808C135.733 84.3645 136.971 84.7708 137.798 84.7708H138.073L138.055 83.2853L138.036 81.7995L137.679 81.756C136.47 81.6085 135.424 80.8105 134.822 79.5765C134.311 78.5305 134.294 78.3618 134.294 74.4265V70.998H138.071V68.1315H134.293V63.7965H131.49L131.512 71.4698ZM72.2858 68.0938C71.5806 68.2108 70.8976 68.4355 70.2608 68.76C69.0719 69.3544 68.0408 70.2216 67.252 71.2906C66.4632 72.3595 65.9391 73.5999 65.7226 74.91C65.6263 75.4695 65.6097 76.2513 65.6097 80.1693V84.7713H68.6109L68.6335 80.1395C68.6585 74.9293 68.6335 75.2058 69.2075 74.0395C69.5701 73.2591 70.1335 72.5888 70.8403 72.0968C71.5471 71.6049 72.3719 71.3091 73.2305 71.2395L73.7227 71.191V67.9915L73.2505 67.9978C72.9271 68.0077 72.6048 68.0398 72.2858 68.0938ZM76.7319 72.623C76.7331 77.5145 76.7614 78.0635 77.0726 79.2613C78.0196 82.906 80.848 85.0403 84.5291 84.8863C87.7569 84.7523 90.1495 82.896 91.1689 79.7363C91.6127 78.3593 91.6282 78.1253 91.6282 72.7888V67.9915H88.6278L88.605 72.973L88.5822 77.9545L88.391 78.5698C87.7025 80.7833 86.2959 81.9078 84.2205 81.9038C82.0556 81.8993 80.5439 80.6628 79.9781 78.4333L79.8077 77.762V67.9915H76.7306L76.7319 72.623ZM147.407 68.069C146.162 68.2014 144.965 68.6243 143.914 69.3037C142.863 69.9832 141.986 70.9 141.355 71.9803C140.442 73.5129 140.024 75.2893 140.158 77.0677C140.292 78.8461 140.971 80.5401 142.104 81.919C142.993 82.969 144.13 83.7821 145.412 84.2855C146.513 84.6843 146.812 84.7328 148.142 84.7293C149.237 84.726 149.439 84.7065 150.05 84.5425C150.883 84.301 151.68 83.9492 152.419 83.4968C152.905 83.186 153.808 82.414 153.808 82.3088C153.67 82.0922 153.506 81.8933 153.319 81.7165L152.329 80.6763L151.829 80.1495L151.578 80.391C150.864 81.0546 149.979 81.5076 149.023 81.6995C148.216 81.817 147.394 81.7579 146.613 81.5263C145.707 81.2114 144.905 80.6554 144.292 79.9183C143.865 79.3457 143.523 78.7134 143.28 78.0418L143.233 77.8495H156.026L156.071 77.4198C156.256 75.7826 155.976 74.1264 155.262 72.6408C153.708 69.5175 150.713 67.773 147.408 68.0695L147.407 68.069ZM119.676 68.1795C116.403 68.7605 113.736 71.5195 113.139 74.9395C113.002 75.9309 113 76.9362 113.133 77.928C113.58 80.4888 115.207 82.769 117.402 83.9095C118.48 84.5115 119.699 84.8172 120.934 84.7955C121.752 84.8249 122.569 84.7058 123.344 84.4438C124.463 84.0844 125.489 83.482 126.348 82.6798L126.692 82.3298L126.439 82.0298C126.299 81.8643 125.86 81.385 125.462 80.9648L124.739 80.2003L124.253 80.602C123.643 81.0898 122.943 81.4534 122.193 81.6723C121.41 81.8317 120.603 81.8298 119.821 81.6665C118.792 81.3693 117.873 80.7739 117.182 79.9555C116.749 79.3833 116.404 78.7497 116.157 78.0758L116.121 77.9185H128.888L128.933 77.5935C129.005 76.6969 128.986 75.7952 128.875 74.9025C128.64 73.6173 128.113 72.4028 127.335 71.352C126.558 70.3013 125.55 69.4422 124.388 68.8405C122.925 68.1333 121.277 67.9023 119.676 68.18L119.676 68.1795ZM42.2838 69.1523C41.9687 69.1822 41.6642 69.2814 41.3921 69.4428C41.3521 69.486 41.3212 69.5367 41.3013 69.5921C41.2813 69.6474 41.2727 69.7062 41.276 69.765C41.2792 69.8237 41.2943 69.8812 41.3203 69.934C41.3463 69.9868 41.3826 70.0338 41.4272 70.0723C41.6697 70.2995 44.6339 72.1168 44.76 72.1155C45.0459 72.1128 45.0815 72.0108 45.0815 71.1925C45.0815 70.454 45.069 70.3823 44.8855 70.0698C44.6477 69.6814 44.269 69.3996 43.8283 69.283C43.3226 69.1645 42.8023 69.1205 42.2838 69.1523ZM149.296 71.1795C150.401 71.487 151.379 72.1364 152.091 73.0343C152.453 73.513 152.954 74.4878 152.984 74.7735L153.003 74.9485H143.281L143.298 74.7735C143.327 74.4818 143.916 73.3665 144.274 72.9235C144.86 72.1877 145.643 71.6331 146.532 71.3243C147.421 71.0155 148.38 70.9652 149.296 71.1793V71.1795ZM122.507 71.3083C123.589 71.692 124.522 72.4084 125.171 73.3548C125.455 73.7828 125.899 74.7085 125.899 74.8735C125.899 74.9718 125.398 74.983 121.003 74.983C118.31 74.983 116.107 74.9648 116.107 74.9425C116.268 74.4613 116.474 73.9962 116.722 73.5533C116.969 73.1855 117.252 72.8441 117.569 72.5345C118.205 71.8843 119.009 71.4225 119.891 71.2003C120.758 71.0128 121.658 71.05 122.507 71.3083ZM38.2267 75.9498C40.3929 77.0579 42.3699 78.5014 44.0844 80.2265C44.7538 80.941 45.3528 81.8195 45.5476 82.3728C45.6496 82.6346 45.6931 82.9155 45.6752 83.1958C45.6573 83.4762 45.5784 83.7493 45.4439 83.996C45.0829 84.4371 44.5973 84.7594 44.0504 84.921C43.56 85.046 39.8676 85.0488 38.4375 84.9235C35.1396 84.6348 32.1838 84.1925 30.3591 83.7148C28.785 83.3025 28.5407 83.0293 28.8959 82.08C29.5187 80.416 33.7501 76.8468 36.3307 75.8095C37.0231 75.5313 37.4139 75.56 38.2267 75.9498Z" fill="white"/>
</g>
<defs>
<clipPath id="clip0_172_409">
<rect width="190" height="150" fill="white"/>
</clipPath>
</defs>
</svg>
